<?xml version="1.0" encoding="UTF-8" standalone="no"?>
<!-- Created with Inkscape (http://www.inkscape.org/) -->

<svg
   width="149.21176mm"
   height="149.21176mm"
   viewBox="0 0 149.21176 149.21176"
   version="1.1"
   id="svg1"
   inkscape:export-filename="Second Logo_Icon v1.svg"
   inkscape:export-xdpi="96"
   inkscape:export-ydpi="96"
   xmlns:inkscape="http://www.inkscape.org/namespaces/inkscape"
   xmlns:sodipodi="http://sodipodi.sourceforge.net/DTD/sodipodi-0.dtd"
   xmlns="http://www.w3.org/2000/svg"
   xmlns:svg="http://www.w3.org/2000/svg">
  <sodipodi:namedview
     id="namedview1"
     pagecolor="#505050"
     bordercolor="#eeeeee"
     borderopacity="1"
     inkscape:showpageshadow="0"
     inkscape:pageopacity="0"
     inkscape:pagecheckerboard="0"
     inkscape:deskcolor="#505050"
     inkscape:document-units="mm" />
  <defs
     id="defs1" />
  <g
     inkscape:label="Layer 1"
     inkscape:groupmode="layer"
     id="layer1"
     transform="translate(-32.33165,-77.39325)">
    <g
       id="g13">
      <rect
         style="display:inline;fill:#ffffff;fill-rule:evenodd;stroke:none;stroke-width:0.407407;stroke-linecap:round;stroke-linejoin:bevel;stroke-dashoffset:3.77953;paint-order:stroke fill markers"
         id="rect42"
         width="149.21176"
         height="149.21176"
         x="32.33165"
         y="77.39325" />
      <g
         id="g42"
         transform="translate(4.2324855,6.2271852)">
        <path
           id="path22"
           style="fill:#666666;fill-rule:evenodd;stroke-width:0.647359;stroke-linecap:round;stroke-linejoin:bevel;stroke-dashoffset:3.77953;paint-order:stroke fill markers"
           d="m 123.54285,170.01029 c 3.1637,7.1973 7.9068,17.93902 7.93285,18.02113 15.32536,-0.0289 27.16785,-0.0703 27.16785,-0.12661 0,-0.0183 -3.83033,-8.70179 -6.33243,-14.38517 a 5.8134451,5.8134451 0 0 0 -0.003,-0.009 c -0.0374,-0.085 -0.0578,-0.13187 -0.0946,-0.21549 a 5.8134451,5.8134451 0 0 0 -5.01107,-3.28456 h -5.1e-4 -0.45475 a 5.8134451,5.8134451 0 0 0 -5.2e-4,0 h -0.002 z m 22.08857,0.16692 a 5.8134451,5.8134451 0 0 0 -0.24391,0.0615 5.8134451,5.8134451 0 0 1 0.24391,-0.0615 z m -1.27692,0.45837 a 5.8134451,5.8134451 0 0 0 -0.14056,0.0816 5.8134451,5.8134451 0 0 1 0.14056,-0.0816 z m -0.97824,0.63665 a 5.8134451,5.8134451 0 0 0 -0.17622,0.1385 5.8134451,5.8134451 0 0 1 0.17622,-0.1385 z m -0.94154,0.93121 a 5.8134451,5.8134451 0 0 0 -0.13178,0.18139 5.8134451,5.8134451 0 0 1 0.13178,-0.18139 z m -0.65423,1.03456 a 5.8134451,5.8134451 0 0 0 -0.0791,0.14832 5.8134451,5.8134451 0 0 1 0.0791,-0.14832 z m -0.43718,1.19011 a 5.8134451,5.8134451 0 0 0 -0.0543,0.2527 5.8134451,5.8134451 0 0 1 0.0543,-0.2527 z m 11.282,0.0791 a 5.8134451,5.8134451 0 0 1 0.0527,0.24959 5.8134451,5.8134451 0 0 0 -0.0527,-0.24959 z m -11.46132,1.27796 a 5.8134451,5.8134451 0 0 0 -0.001,0.0129 5.8134451,5.8134451 0 0 0 0.001,0.0124 5.8134451,5.8134451 0 0 1 -0.002,-0.0124 5.8134451,5.8134451 0 0 1 0.002,-0.0129 z m 0.12816,1.16168 a 5.8134451,5.8134451 0 0 0 0.0563,0.25838 5.8134451,5.8134451 0 0 1 -0.0563,-0.25838 z m 11.36675,0.005 a 5.8134451,5.8134451 0 0 1 -0.0537,0.24856 5.8134451,5.8134451 0 0 0 0.0537,-0.24856 z m -10.93628,1.3224 a 5.8134451,5.8134451 0 0 0 0.0832,0.15245 5.8134451,5.8134451 0 0 1 -0.0832,-0.15245 z m 10.5053,0.004 a 5.8134451,5.8134451 0 0 1 -0.0755,0.1385 5.8134451,5.8134451 0 0 0 0.0755,-0.1385 z m -9.88002,1.01183 a 5.8134451,5.8134451 0 0 0 0.14521,0.19378 5.8134451,5.8134451 0 0 1 -0.14521,-0.19378 z m 9.25112,0.007 a 5.8134451,5.8134451 0 0 1 -0.13643,0.18242 5.8134451,5.8134451 0 0 0 0.13643,-0.18242 z m -8.30906,0.98341 a 5.8134451,5.8134451 0 0 0 0.18759,0.14056 5.8134451,5.8134451 0 0 1 -0.18759,-0.14056 z m 7.36854,0.003 a 5.8134451,5.8134451 0 0 1 -0.17673,0.13229 5.8134451,5.8134451 0 0 0 0.17673,-0.13229 z m -6.31331,0.68316 a 5.8134451,5.8134451 0 0 0 0.15193,0.0832 5.8134451,5.8134451 0 0 1 -0.15193,-0.0832 z m 5.24878,0.007 a 5.8134451,5.8134451 0 0 1 -0.13384,0.0734 5.8134451,5.8134451 0 0 0 0.13384,-0.0734 z m -4.02714,0.4501 a 5.8134451,5.8134451 0 0 0 0.25631,0.0558 5.8134451,5.8134451 0 0 1 -0.25631,-0.0558 z m 2.81636,5.2e-4 a 5.8134451,5.8134451 0 0 1 -0.25218,0.0553 5.8134451,5.8134451 0 0 0 0.25218,-0.0553 z" />
        <path
           id="path40"
           style="fill:#000000;fill-rule:evenodd;stroke-width:0.647359;stroke-linecap:round;stroke-linejoin:bevel;stroke-dashoffset:3.77953;paint-order:stroke fill markers"
           d="m 101.47908,106.07518 a 30.892191,30.892191 0 0 0 -27.246919,18.94561 c -0.104645,0.23736 -0.106746,0.24435 -0.211356,0.48163 a 30.892191,30.892191 0 0 0 -0.0015,0.005 c -13.462438,30.53594 -26.996748,61.28353 -27.245366,61.95901 -0.162007,0.44013 2.148038,0.5562 27.488245,0.58704 -0.280796,-0.0381 -0.390616,-0.0821 -0.369487,-0.13953 0.103889,-0.28223 6.602009,-14.97593 11.317656,-25.66768 a 30.892191,30.892191 0 0 1 -5.17e-4,0 c 4.998999,-11.33419 8.326928,-18.91679 11.9972,-27.21022 a 5.8134451,5.8134451 0 0 1 0.264584,-0.59945 5.8134451,5.8134451 0 0 1 4.9475,-3.30006 h 0.45475 5.2e-4 a 5.8134451,5.8134451 0 0 1 4.98833,3.25355 5.8134451,5.8134451 0 0 1 0.0227,0.031 c 0.0368,0.0836 0.0572,0.13049 0.0946,0.21549 a 5.8134451,5.8134451 0 0 1 0.008,0.0377 c 2.13856,4.86289 3.03907,6.90708 5.75365,13.07 h 17.76946 a 30.892191,30.892191 0 0 0 1.01803,-3.19412 30.892191,30.892191 0 0 1 -1.01803,3.19412 h 0.54467 0.005 a 5.8134451,5.8134451 0 0 0 5.8105,-5.81256 5.8134451,5.8134451 0 0 0 -0.5085,-2.3704 c -0.0145,-0.0331 -0.0175,-0.0403 -0.032,-0.0734 -2.41956,-5.50278 -2.87247,-6.51875 -5.3697,-12.19822 a 30.892191,30.892191 0 0 1 0.78652,2.80086 30.892191,30.892191 0 0 0 -0.78652,-2.80086 c -1.05431,-2.39786 -1.21979,-2.76841 -2.26704,-5.15008 A 30.892191,30.892191 0 0 0 103.8977,106.07548 h -0.002 z m 31.39446,24.54785 a 30.892191,30.892191 0 0 1 0.47181,2.76676 30.892191,30.892191 0 0 0 -0.47181,-2.76676 z m 0.52814,3.29644 a 30.892191,30.892191 0 0 1 0.18655,2.91145 30.892191,30.892191 0 0 1 -0.22583,3.33882 30.892191,30.892191 0 0 0 0.22583,-3.33882 30.892191,30.892191 0 0 0 -0.18655,-2.91145 z m -61.59211,2.97037 a 30.892191,30.892191 0 0 0 0.280087,3.95014 30.892191,30.892191 0 0 1 -0.280087,-3.95014 z m 61.481,3.89847 a 30.892191,30.892191 0 0 1 -0.60358,3.17034 30.892191,30.892191 0 0 0 0.60358,-3.17034 z m -60.961652,1.34462 a 30.892191,30.892191 0 0 0 0.561723,2.6479 30.892191,30.892191 0 0 1 -0.561723,-2.6479 z m 1.029912,4.14083 a 30.892191,30.892191 0 0 0 0.839225,2.31975 30.892191,30.892191 0 0 1 -0.839225,-2.31975 z m 1.516186,3.81579 a 30.892191,30.892191 0 0 0 1.126546,2.13578 30.892191,30.892191 0 0 1 -1.126546,-2.13578 z m 1.977657,3.53777 a 30.892191,30.892191 0 0 0 1.442806,2.00607 30.892191,30.892191 0 0 1 -1.442806,-2.00607 z m 2.410189,3.23494 a 30.892191,30.892191 0 0 0 1.858285,1.9482 30.892191,30.892191 0 0 1 -1.858285,-1.9482 z m 2.80138,2.88716 a 30.892191,30.892191 0 0 0 3.116605,2.47375 30.892191,30.892191 0 0 1 -3.116605,-2.47375 z" />
        <path
           id="path13"
           style="fill:#0000aa;fill-rule:evenodd;stroke-width:0.52473;stroke-linecap:round;stroke-linejoin:bevel;stroke-dashoffset:3.77953;paint-order:stroke fill markers"
           d="m 94.638668,147.74395 10.276892,22.26634 h 3.70417 11.21947 3.70416 c -3.90896,-8.89272 -5.1768,-11.76706 -9.80147,-22.26634 h -3.70416 -11.694896 z" />
        <path
           d="m 152.21293,173.29485 c 0.0368,0.0836 0.0571,0.13045 0.0946,0.21549 a 5.8134451,5.8134451 0 0 0 -0.0269,-0.0827 c -0.0145,-0.0331 -0.0175,-0.0403 -0.032,-0.0734 h 5.1e-4 a 5.8134451,5.8134451 0 0 0 -0.0362,-0.0594 z"
           style="fill:#808080;fill-rule:evenodd;stroke-width:0.499999;stroke-linecap:round;stroke-linejoin:bevel;stroke-dashoffset:3.77953;paint-order:stroke fill markers"
           id="path21" />
        <path
           d="m 146.97656,169.98446 a 5.8134451,5.8134451 0 0 0 -0.22944,0.0258 h 0.45475 a 5.8134451,5.8134451 0 0 0 -0.22531,-0.0258 z"
           style="fill:#808080;fill-rule:evenodd;stroke-width:0.499999;stroke-linecap:round;stroke-linejoin:bevel;stroke-dashoffset:3.77953;paint-order:stroke fill markers"
           id="path18" />
        <path
           d="m 142.50132,103.49042 h -0.45475 a 5.8134451,5.8134451 0 0 0 -5.58416,5.78777 5.8134451,5.8134451 0 0 0 5.81101,5.81256 h 0.005 a 5.8134451,5.8134451 0 0 0 5.81049,-5.81256 5.8134451,5.8134451 0 0 0 -0.48162,-2.28772 c -0.0374,-0.085 -0.0578,-0.13187 -0.0946,-0.21549 a 5.8134451,5.8134451 0 0 0 -5.01106,-3.28456 z"
           style="fill:#808080;fill-rule:evenodd;stroke-width:0.499999;stroke-linecap:round;stroke-linejoin:bevel;stroke-dashoffset:3.77953;paint-order:stroke fill markers"
           id="path23" />
        <path
           d="m 97.472087,134.43624 a 5.8134451,5.8134451 0 0 0 -0.264584,0.59945 c 0.08087,-0.18274 0.186737,-0.42359 0.264584,-0.59945 z"
           style="fill:#ffff00;fill-rule:evenodd;stroke-width:0.499999;stroke-linecap:round;stroke-linejoin:bevel;stroke-dashoffset:3.77953;paint-order:stroke fill markers"
           id="path33" />
        <path
           d="m 107.98824,134.67395 a 5.8134451,5.8134451 0 0 0 -0.008,-0.0377 c -0.0374,-0.085 -0.0578,-0.13187 -0.0946,-0.21549 a 5.8134451,5.8134451 0 0 0 -0.0227,-0.031 c 0.0458,0.10413 0.0786,0.17848 0.12506,0.28422 z"
           style="fill:#ffff00;fill-rule:evenodd;stroke-width:0.499999;stroke-linecap:round;stroke-linejoin:bevel;stroke-dashoffset:3.77953;paint-order:stroke fill markers"
           id="path31" />
        <path
           d="m 74.021322,125.50242 c 0.10461,-0.23728 0.10671,-0.24427 0.211356,-0.48163 a 30.892191,30.892191 0 0 0 -0.211356,0.48163 z"
           style="fill:#ffff00;fill-rule:evenodd;stroke-width:2.65695;stroke-linecap:round;stroke-linejoin:bevel;stroke-dashoffset:3.77953;paint-order:stroke fill markers"
           id="path41" />
      </g>
    </g>
  </g>
</svg>
